<?xml version="1.0" standalone="no"?>
<!DOCTYPE svg PUBLIC "-//W3C//DTD SVG 20010904//EN"
 "http://www.w3.org/TR/2001/REC-SVG-20010904/DTD/svg10.dtd">
<svg version="1.0" xmlns="http://www.w3.org/2000/svg"
 width="128.000000pt" height="128.000000pt" viewBox="0 0 128.000000 128.000000"
 preserveAspectRatio="xMidYMid meet">
<metadata>
Created by potrace 1.11, written by Peter Selinger 2001-2013
</metadata>
<g transform="translate(0.000000,128.000000) scale(0.100000,-0.100000)"
fill="#000000" stroke="none">
<path d="M399 1012 c-116 -76 -178 -156 -194 -249 -3 -23 -4 -52 0 -63 6 -18
12 -11 36 40 55 117 187 221 317 252 28 7 52 15 52 18 0 11 -90 50 -114 50
-13 0 -57 -22 -97 -48z"/>
<path d="M560 967 c-126 -36 -239 -127 -292 -235 -28 -56 -33 -78 -33 -137 0
-58 5 -78 27 -116 15 -25 44 -58 64 -74 43 -33 123 -65 162 -65 33 0 40 -5 74
-51 46 -61 169 -105 184 -65 6 16 -19 71 -48 103 -20 21 -20 21 1 32 37 20 54
68 48 134 -3 32 -8 61 -11 64 -2 3 -19 -11 -36 -30 -35 -40 -103 -77 -143 -77
-57 0 -78 107 -29 153 30 28 90 57 121 57 29 0 34 15 16 50 -11 21 -15 51 -13
93 4 78 23 78 23 0 1 -99 53 -152 165 -168 48 -7 209 11 223 24 4 5 0 28 -9
52 -47 119 -125 199 -231 239 -71 27 -201 35 -263 17z"/>
</g>
</svg>
